<?xml version="1.0" encoding="UTF-8" standalone="no"?>
<svg
   fill="none"
   viewBox="0 0 24 24"
   stroke-width="1.5"
   stroke="currentColor"
   class="size-6"
   version="1.1"
   id="svg1"
   sodipodi:docname="DataProcessing.svg"
   inkscape:version="1.3.2 (091e20e, 2023-11-25)"
   xmlns:inkscape="http://www.inkscape.org/namespaces/inkscape"
   xmlns:sodipodi="http://sodipodi.sourceforge.net/DTD/sodipodi-0.dtd"
   xmlns="http://www.w3.org/2000/svg"
   xmlns:svg="http://www.w3.org/2000/svg">
  <defs
     id="defs1">
    <clipPath
       clipPathUnits="userSpaceOnUse"
       id="clipPath56">
      <path
         id="path57"
         style="fill:#ff0000;fill-opacity:1;fill-rule:nonzero;stroke:none"
         d="M 1.46875,1.2910156 V 21.691406 h 17.400391 v -3.445312 c -0.1068,0.04486 -0.203736,0.0859 -0.283203,0.11914 -0.04381,0.09927 -0.0898,0.197246 -0.136719,0.294922 -0.03471,0.154206 -0.06947,0.308383 -0.103516,0.462891 0.05234,0.08067 0.08319,0.177802 0.07813,0.298828 -0.008,0.190816 -0.169436,0.342388 -0.253906,0.513672 -0.08591,0.05619 -0.174688,0.107055 -0.265625,0.152344 -0.03672,0.09299 -0.07036,0.187233 -0.109375,0.279297 -0.237408,0.441826 -0.450211,0.533195 -0.820313,0.298828 -0.211798,0.05896 -0.437411,-0.07042 -0.65625,-0.103516 -0.01081,-0.0121 -0.02061,-0.02487 -0.03125,-0.03711 -0.355356,0.01707 -0.628638,-0.0669 -0.990234,-0.292969 -0.376688,-0.296295 -0.623628,-0.696838 -0.79688,-1.136718 -0.102336,-0.344621 -0.175216,-0.698065 -0.253906,-1.048828 -0.121229,-0.528815 0.05917,-0.787877 0.425781,-1.015625 -0.01075,-0.106009 -0.01688,-0.211929 -0.02148,-0.318359 -0.0043,-0.111406 -0.0051,-0.222513 -0.0059,-0.333985 -0.0061,-0.195091 0.04954,-0.379273 0.142578,-0.548828 0.187506,-0.306514 0.444902,-0.381415 0.78711,-0.421875 0.01297,-10e-4 0.02605,-0.0011 0.03906,-0.002 0.0075,-0.0047 0.01389,-0.01104 0.02149,-0.01563 0.227914,-0.146764 0.463656,-0.279529 0.705078,-0.402344 0.08399,-0.153151 0.178008,-0.301851 0.285156,-0.443359 0.08509,-0.101652 0.164589,-0.208548 0.255859,-0.304688 0.03812,-0.04016 0.08105,-0.07527 0.121094,-0.113281 -0.424963,-0.05385 -0.555818,-0.61267 0.03125,-1.042969 0.165735,-0.121478 0.35287,-0.209546 0.542969,-0.285156 0.21864,-0.07635 0.446636,-0.122524 0.675781,-0.152344 0.205365,-0.02085 0.411068,-0.02578 0.617188,-0.0293 V 1.2910156 Z" />
    </clipPath>
  </defs>
  <sodipodi:namedview
     id="namedview1"
     pagecolor="#ffffff"
     bordercolor="#000000"
     borderopacity="0.25"
     inkscape:showpageshadow="2"
     inkscape:pageopacity="0.0"
     inkscape:pagecheckerboard="0"
     inkscape:deskcolor="#d1d1d1"
     inkscape:zoom="9.8333333"
     inkscape:cx="11.949153"
     inkscape:cy="11.949153"
     inkscape:window-width="1312"
     inkscape:window-height="788"
     inkscape:window-x="0"
     inkscape:window-y="25"
     inkscape:window-maximized="0"
     inkscape:current-layer="svg1" />
  <path
     stroke-linecap="round"
     stroke-linejoin="round"
     d="m 18.419492,5.8665254 c 0,2.278 -3.694,4.125 -8.25,4.125 -4.5560005,0 -8.2500005,-1.847 -8.2500005,-4.125 m 16.5000005,0 c 0,-2.278 -3.694,-4.125 -8.25,-4.125 -4.5560005,0 -8.2500005,1.847 -8.2500005,4.125 m 16.5000005,0 V 17.116525 c 0,2.278 -3.694,4.125 -8.25,4.125 -4.5560005,0 -8.2500005,-1.847 -8.2500005,-4.125 V 5.8665254 m 16.5000005,0 v 3.75 m -16.5000005,-3.75 v 3.75 m 16.5000005,0 v 3.7499996 c 0,2.278 -3.694,4.125 -8.25,4.125 -4.5560005,0 -8.2500005,-1.847 -8.2500005,-4.125 V 9.6165254 m 16.5000005,0 c 0,2.2779996 -3.694,4.1249996 -8.25,4.1249996 -4.5560005,0 -8.2500005,-1.847 -8.2500005,-4.1249996"
     id="path1"
     style="stroke-width:0.9;stroke-dasharray:none"
     clip-path="url(#clipPath56)" />
  <path
     stroke-linecap="round"
     stroke-linejoin="round"
     d="m 19.157423,13.824294 c 0.04119,-0.260283 0.256272,-0.451413 0.507967,-0.451413 h 0.500186 c 0.251695,0 0.46678,0.19113 0.507966,0.451413 l 0.06819,0.429322 c 0.03203,0.203615 0.175728,0.366892 0.356949,0.44661 0.182135,0.07876 0.391271,0.06819 0.55144,-0.05187 l 0.337272,-0.253079 a 0.51483051,0.54025424 0 0 1 0.663559,0.05763 l 0.353746,0.371695 c 0.178474,0.186808 0.201356,0.481187 0.05491,0.696328 l -0.24117,0.353927 c -0.114406,0.168079 -0.124474,0.387062 -0.04897,0.578192 0.07551,0.190649 0.231102,0.34096 0.425594,0.374576 l 0.408661,0.07203 c 0.248491,0.04322 0.430169,0.268446 0.430169,0.53257 v 0.525368 c 0,0.264124 -0.181678,0.48983 -0.430169,0.53305 l -0.409119,0.07155 c -0.194034,0.03362 -0.349627,0.183927 -0.425136,0.374576 -0.07551,0.19113 -0.06544,0.410113 0.04897,0.578193 l 0.24117,0.354406 c 0.146441,0.214661 0.123102,0.50904 -0.05491,0.696328 l -0.354204,0.371215 a 0.51483051,0.54025424 0 0 1 -0.663101,0.05763 l -0.337729,-0.253079 c -0.16017,-0.120057 -0.368848,-0.130622 -0.550526,-0.05138 -0.182135,0.07924 -0.324915,0.242514 -0.357406,0.446129 l -0.06819,0.429322 c -0.04119,0.260283 -0.256271,0.451413 -0.507966,0.451413 h -0.500644 c -0.251695,0 -0.466322,-0.19113 -0.507966,-0.451413 l -0.06773,-0.429322 c -0.03249,-0.203615 -0.175729,-0.366892 -0.357407,-0.44661 -0.182135,-0.07876 -0.390813,-0.06819 -0.550983,0.05186 l -0.337729,0.253079 c -0.204559,0.153672 -0.485084,0.129181 -0.663559,-0.05763 l -0.353746,-0.371695 a 0.51483051,0.54025424 0 0 1 -0.05491,-0.696328 l 0.24117,-0.353926 c 0.114406,-0.16808 0.124474,-0.387063 0.04942,-0.578193 -0.07551,-0.190649 -0.231559,-0.34096 -0.425593,-0.374576 l -0.409119,-0.07203 c -0.248033,-0.04322 -0.430169,-0.268926 -0.430169,-0.53257 v -0.525368 c 0,-0.264124 0.182136,-0.48983 0.430169,-0.53305 l 0.409119,-0.07155 c 0.194034,-0.03362 0.350085,-0.183927 0.425593,-0.374576 0.07551,-0.19113 0.06544,-0.410113 -0.04942,-0.578192 L 16.77136,15.520449 a 0.51483051,0.54025424 0 0 1 0.05492,-0.696328 l 0.353746,-0.371215 a 0.51483051,0.54025424 0 0 1 0.663559,-0.05763 l 0.337271,0.253079 c 0.16017,0.120057 0.369305,0.130622 0.550983,0.05138 0.181678,-0.07924 0.324916,-0.242515 0.356949,-0.44613 z"
     id="path1-3"
     style="stroke-width:0.8;stroke-dasharray:none" />
  <path
     stroke-linecap="round"
     stroke-linejoin="round"
     d="m 21.288593,17.694915 a 1.3728815,1.4406781 0 1 1 -2.745763,0 1.3728815,1.4406781 0 0 1 2.745763,0 z"
     id="path2"
     style="stroke-width:0.8;stroke-dasharray:none" />
</svg>
