<?xml version="1.0" encoding="UTF-8" standalone="no"?>
<svg
   version="1.1"
   id="Layer_1"
   x="0px"
   y="0px"
   width="29.047001"
   viewBox="0 0 29.046999 54.999997"
   enable-background="new 0 0 1200 753"
   xml:space="preserve"
   sodipodi:docname="NanoporeSeq.svg"
   height="55"
   inkscape:version="1.3.2 (091e20e, 2023-11-25)"
   xmlns:inkscape="http://www.inkscape.org/namespaces/inkscape"
   xmlns:sodipodi="http://sodipodi.sourceforge.net/DTD/sodipodi-0.dtd"
   xmlns="http://www.w3.org/2000/svg"
   xmlns:svg="http://www.w3.org/2000/svg"><defs
   id="defs99" /><sodipodi:namedview
   id="namedview99"
   pagecolor="#ffffff"
   bordercolor="#000000"
   borderopacity="0.25"
   inkscape:showpageshadow="2"
   inkscape:pageopacity="0.0"
   inkscape:pagecheckerboard="0"
   inkscape:deskcolor="#d1d1d1"
   inkscape:zoom="8.5802019"
   inkscape:cx="12.062653"
   inkscape:cy="31.351244"
   inkscape:window-width="1312"
   inkscape:window-height="761"
   inkscape:window-x="0"
   inkscape:window-y="25"
   inkscape:window-maximized="0"
   inkscape:current-layer="Layer_1" />



































































































<g
   id="g1"
   transform="matrix(0.30488109,0,0,0.30930471,-0.6145609,0.21997574)"
   style="stroke-width:1.62821;stroke-dasharray:none"><path
     fill="#6A9EC5"
     opacity="1"
     stroke="none"
     d="m 41.288602,128.04457 c 0.408421,0.2896 0.816842,0.57919 1.593525,1.12987 -2.215218,0 -3.963381,0 -5.838539,0 0,1.15509 0,2.16668 0,3.33748 1.59307,0 3.227589,0 4.987465,0 -1.75252,2.06024 -1.75252,2.06024 0.07077,3.86329 -1.774168,0 -3.392198,0 -5.095043,0 0,1.14277 0,2.12003 0,3.31948 2.058138,-0.11328 4.18502,-0.0619 5.434022,1.77047 -1.062152,1.72541 -2.65672,2.56996 -4.8216,2.11223 0,0.82245 -0.07914,1.5487 0.02092,2.25604 0.108417,0.76223 0.517882,1.24865 1.621273,0.95895 0.693435,-0.18207 1.466981,-0.23004 2.196497,-0.19881 1.170427,0.0501 2.156723,0.72535 1.957463,1.63224 -0.178135,0.8106 -1.027048,1.68627 -1.865328,2.16327 -0.724985,0.41252 -1.850826,0.30533 -2.829591,0.43178 0.334307,1.08612 0.64735,2.10378 0.919538,2.98844 1.71665,0.18302 3.104707,-1.30284 4.665253,-0.15484 0.362197,0.26644 0.774835,0.59745 0.900994,0.96537 0.525376,1.53228 -0.241232,2.1086 -4.116905,3.14911 0.37764,0.93875 0.754163,1.87478 1.155717,2.87303 1.699218,-0.56902 3.291696,-1.10227 5.315949,-1.78013 -0.550787,1.04968 -0.888233,1.69286 -1.293168,2.46452 0.788047,0.31796 1.582264,0.63838 2.794383,1.12742 -1.753322,0.67631 -3.276394,1.26381 -4.9403,1.90564 0.558808,0.82767 1.088611,1.61233 1.689738,2.5027 1.423093,-0.63705 2.872365,-1.28584 4.721309,-2.11356 -1.431077,2.24054 -0.95935,3.00823 2.053397,3.5211 -1.258798,0.57141 -2.180567,1.04019 -3.150792,1.41695 -1.098477,0.42655 -1.406291,0.88069 -0.497314,1.7592 0.545037,0.52677 0.858429,1.23042 1.330469,1.93607 -0.980648,0.6218 -1.873414,1.18785 -2.991308,1.89668 -1.264374,-1.74892 -2.558415,-3.50475 -3.813342,-5.28097 -3.846634,-5.44452 -6.410382,-11.34878 -8.101584,-17.51185 -0.803874,-2.92947 -1.191797,-5.95743 -1.544441,-8.96015 -0.379242,-3.22898 -0.578258,-6.47847 -0.695633,-9.7233 -0.06553,-1.81507 0.193823,-3.63881 0.31409,-5.7336 0.09133,-7.94291 0.174997,-15.6109 0.28655,-23.41724 0.07251,-2.56169 0.142926,-4.9849 0.155475,-7.40834 0.01744,-3.05918 -0.01399,-6.11857 0.02439,-9.2955 0.01042,-1.05397 0.014,-1.99315 -0.0739,-2.9261 -0.373701,-3.98211 -0.77393,-7.9624 -1.155089,-12.06485 -0.03486,-1.385652 -0.298054,-2.680057 -0.07111,-3.907369 0.418078,-2.259976 0.212997,-4.301307 -1.66652,-6.127184 -0.0366,-0.179005 -0.114342,-0.241917 -0.238443,-0.248116 0.002,0.01256 0.0244,-0.0025 0.03486,-0.129183 C 30.348831,60.819563 29.955993,59.22103 29.563156,57.622494 26.808617,48.478253 23.848962,39.374355 21.395963,30.170815 20.348279,26.239809 20.245023,22.107584 19.920684,18.054507 19.64041,14.552572 19.573828,11.03331 19.569923,7.521575 c -0.0025,-2.055512 0.302586,-4.111289 0.475282,-6.237933 1.130965,0 2.26803,0 3.669964,0 -0.112245,1.028581 -0.223803,2.050324 -0.343722,3.149776 2.546145,0 4.961668,0 7.556338,0 0,-1.003853 0,-2.01876 0,-3.126168 1.35442,0 2.533491,0 3.975965,0 -0.115728,0.839174 -0.324546,1.6451 -0.321758,2.450457 0.01744,4.359511 -0.08087,8.726636 0.195915,13.075422 0.16907,2.656686 0.736558,5.328426 1.483086,7.91723 1.569643,5.443046 4.399688,10.327271 8.715329,14.647607 6.096328,6.102963 13.940367,9.381573 22.841886,11.001395 4.415131,0.803432 8.925361,0.868633 13.426982,0.08896 5.084583,-0.880648 10.20389,-1.613421 15.342441,-2.415864 0.223451,0.747337 0.516655,1.72863 0.835942,2.796797 -1.371431,0.341833 -2.696047,0.671999 -4.108573,1.02407 0.354837,1.47475 0.692357,2.87758 1.104928,4.592219 -1.094053,-0.522672 -1.886738,-0.901347 -2.640829,-1.261613 -0.576865,0.66343 -1.096558,1.261151 -1.794735,2.064094 -0.417763,-1.639906 -0.761171,-2.987972 -1.143375,-4.488319 -1.163908,0.137714 -2.32095,0.274647 -3.66836,0.43406 0.307813,1.877411 0.184062,3.647198 -1.739309,4.929129 -1.775212,-0.945774 -3.242648,-2.133226 -2.679519,-4.345022 -1.343367,0.114985 -2.502603,0.214219 -3.878077,0.331953 0,0.601059 -0.05682,1.23357 0.01042,1.855807 0.142926,1.290765 -1.151915,1.71282 -1.920407,2.454852 -0.869828,-0.709243 -1.9142,-1.322339 -2.542796,-2.164443 -0.366276,-0.490679 -0.06658,-1.348089 -0.06658,-2.115486 -1.220206,-0.163406 -2.379199,-0.318624 -3.638937,-0.487331 -0.344069,1.308426 -0.670882,2.549876 -1.006619,3.825933 -1.98312,-1.992465 -2.175198,-2.020529 -4.434236,-0.474799 0.293523,-1.472732 0.54814,-2.749571 0.802444,-4.025145 -1.226935,-0.348546 -2.289085,-0.650265 -3.53265,-1.00353 -0.631525,1.322791 -1.286963,2.69568 -2.095089,4.388413 -0.477095,-0.969395 -0.848879,-1.724869 -1.2444,-2.528597 -0.840198,0.251829 -1.760852,0.527803 -2.955088,0.88577 0.739452,-1.548517 1.364249,-2.856888 2.000235,-4.188752 -0.356722,-0.143131 -0.719372,-0.278419 -1.071493,-0.431523 -2.27713,-0.990097 -2.276397,-0.991378 -3.711168,0.751255 -0.883947,1.073596 -2.498456,1.391326 -3.604182,0.709298 -0.92822,-0.57252 -1.097081,-1.911986 -0.369691,-2.912914 0.418076,-0.575333 0.832215,-1.152789 1.315026,-1.822054 -0.961231,-0.631684 -1.881363,-1.236314 -2.973912,-1.954266 -1.239903,2.024961 -3.275906,1.751082 -5.308037,1.610363 -0.54556,-1.869075 0.378335,-3.184428 1.916223,-4.230505 -0.0244,-0.167148 0.0016,-0.285487 -0.05542,-0.35298 -1.736206,-2.060408 -1.735159,-2.056246 -4.36584,-0.742696 -0.625494,0.312302 -1.271975,0.59352 -2.34779,1.092738 1.197896,-2.226367 0.218921,-3.173616 -2.513517,-3.203167 1.470818,-0.823256 2.598122,-1.378548 3.609239,-2.060852 0.358291,-0.241798 0.727807,-1.028084 0.584708,-1.160175 -0.488635,-0.451085 -0.486822,-1.601295 -1.826599,-1.090926 -1.161816,0.442573 -2.385265,0.765687 -3.749235,1.194304 1.046151,-2.348662 0.809138,-2.80106 -1.831932,-3.589878 0.859161,-0.272432 1.569994,-0.489878 2.273714,-0.723132 0.732618,-0.242846 1.458406,-0.500928 2.181752,-0.750478 -0.413754,-2.291016 -0.417799,-2.31095 -2.988379,-1.928367 -2.059637,0.306532 -4.107944,0.669117 -6.32515,1.033773 0.258662,1.013262 0.517463,2.026838 0.807498,3.162904 2.022965,-0.141153 4.585563,-1.601049 5.416244,1.30612 0.36265,1.269091 -1.091782,2.095966 -4.366538,2.682807 0.282367,0.879948 0.560516,1.76057 0.85104,2.638178 0.04531,0.136844 0.14676,0.259944 0.252735,0.441387 1.933792,-0.803379 3.711237,-0.538938 5.339586,0.618729 -0.532871,1.978274 -0.70372,2.115705 -4.223819,3.292527 0.32873,0.945433 0.661469,1.902378 1.018122,2.928059 1.66795,-0.368043 3.214795,-0.709375 5.153608,-1.13719 -0.471308,0.87753 -0.838733,1.561602 -1.233803,2.29718 0.788745,0.462258 1.530985,0.897272 2.530841,1.483272 -1.878643,0.430793 -3.549381,0.813896 -5.319192,1.219735 0.388514,0.99784 0.45719,2.373625 1.260505,2.867222 0.673043,0.413582 2.202598,-0.210655 3.355769,-0.359196 0.419402,-0.05402 0.84696,-0.06127 1.310007,-0.0925 -1.590247,1.972286 -1.561696,2.077871 0.874779,3.417719 -0.137,0.110676 -0.274001,0.221346 -0.607961,0.436012 -4.952848,0.724487 -4.426636,-0.08651 -3.589088,3.655396 0.02092,0.08597 0.132817,0.156367 0.315485,0.3607 1.840436,-0.366349 3.797551,-0.619094 5.072383,1.155412 -0.606007,1.89974 -2.44634,2.282797 -4.28608,2.474366 -0.08262,0.227066 -0.160356,0.326288 -0.142582,0.410561 0.204629,0.967485 0.153734,2.095187 0.752977,2.829799 0.298403,0.365826 1.794911,-0.0048 2.749866,-0.01527 1.292717,-0.01412 2.177953,0.571105 2.276329,1.633924 0.09481,1.025928 -0.5282,1.805058 -1.874391,1.952139 -0.686778,0.07503 -1.402805,0.103158 -2.037362,0.308242 -0.266331,0.08604 -0.355748,0.575541 -0.539809,1.011281 0.07426,0.89831 0.163146,1.66696 0.258314,2.49349 1.723132,-0.10092 3.236339,-0.18952 5.02351,-0.29417 -0.654463,0.77518 -1.112559,1.31777 -1.89604,2.24579 0.725021,0.37535 1.439269,0.74512 2.400709,1.24287 -2.014703,0.20297 -3.53638,0.35626 -5.041987,0.50792 0,0.76601 0.05333,1.36276 -0.01043,1.95004 -0.143274,1.3122 0.584568,1.63216 1.964818,1.45208 0.988632,-0.12899 2.00306,-0.11204 3.310452,-0.17484 -0.742101,0.79573 -1.262108,1.35331 -1.771414,1.89944 0.587356,0.5474 1.105865,1.03063 1.75489,1.6355 -1.792155,0.13576 -3.317004,0.25126 -4.817137,0.3649 0,1.17163 0,2.19482 0,3.35279 2.098889,0.0789 4.325576,-0.0724 4.916175,2.22091 -1.272114,1.44595 -3.008668,1.63192 -4.7767,1.52306 -0.715714,3.53537 -0.70013,3.55175 3.13235,3.62163 0.197657,0.003 0.394581,0.0352 0.960291,0.0885 -1.669205,1.17492 -0.906572,2.23447 -0.0366,3.45656 -1.607013,0 -2.903878,0 -4.288589,0 0,1.22037 0,2.27949 0,3.56028 1.602935,0 3.095573,0 4.905648,0 -0.796831,0.71928 -1.304498,1.17758 -1.868883,1.68705 0.5792,0.55874 1.128455,1.0886 1.974579,1.90483 -1.992532,0 -3.612514,0 -5.30103,0 0,0.75834 0,1.29706 -0.0244,1.96185 -0.02439,0.55612 -0.02439,0.98618 -0.02439,1.56239 1.529869,0 2.890596,0 4.602853,0 -1.403501,1.20657 -1.31886,2.27881 -0.03138,3.60481 -1.759912,0 -3.154418,0 -4.524384,0 0,1.3059 0,2.36561 0,3.54882 0.997765,0 1.85717,0.0155 2.715529,-0.004 1.388338,-0.0307 2.209222,0.55757 2.374982,1.7093 0.142225,0.9888 -0.964578,1.84272 -2.373483,1.89709 -0.899738,0.0347 -1.802789,0.007 -2.729718,0.007 0,1.28172 0,2.34417 0,3.5753 1.700858,0 3.281658,0 5.229952,0 -0.798609,0.73365 -1.328203,1.22015 -1.922985,1.7666 0.385447,0.26638 0.689671,0.47661 0.99393,0.68684 M 23.856757,19.10924 c 2.345873,-0.247128 4.691746,-0.494266 7.041698,-0.741825 0,-1.015359 0,-2.00988 0,-2.82538 -2.543843,0 -4.987499,0 -7.613403,0 0.09517,1.297724 0.177089,2.412246 0.571705,3.567205 M 27.689726,8.377152 c -1.421211,0 -2.842386,0 -4.248606,0 0,1.191305 0,2.168395 0,3.282431 1.391371,0 2.708453,0.01284 4.025083,-0.0025 3.452995,-0.04004 3.212042,0.526297 3.170872,-2.810375 -0.0016,-0.131423 -0.105976,-0.26195 -0.195217,-0.469455 -0.807881,0 -1.610222,0 -2.752062,-1.15e-4 m 0.58781,14.304487 c -0.632989,0.0075 -1.265943,0.01946 -1.898933,0.02215 -2.396315,0.01013 -2.808048,0.505099 -2.074139,2.494183 0.08296,0.224969 0.150247,0.454257 0.2991,0.907818 2.607358,-0.446601 5.202064,-0.891031 7.827898,-1.34079 -0.182667,-0.506382 -0.388062,-0.787573 -0.360802,-1.051019 0.111559,-1.081067 -0.496721,-1.424753 -1.645953,-1.309641 -0.618697,0.06198 -1.239903,0.105369 -2.147031,0.27737 z"
     id="path3"
     style="fill:none;stroke:#000000;stroke-width:1.62821;stroke-dasharray:none"
     inkscape:export-filename="../GitHubRepo/aporva-kamath/app/components/icons/NanoporeSeq.svg"
     inkscape:export-xdpi="96"
     inkscape:export-ydpi="96" /><path
     id="path6"
     style="fill:none;stroke:#000000;stroke-width:1.62821;stroke-dasharray:none"
     d="m 57.170779,73.4473 c -1.628138,0.038 -3.2446,0.37424 -4.864164,0.89078 -1.28787,0.41077 -2.670421,0.60288 -4.149464,0.91178 -0.370631,1.99094 0.460293,3.68467 1.68043,5.29808 2.157978,2.85359 2.313732,5.67874 -0.105976,8.53243 -0.872234,1.02868 -1.477858,2.22438 -2.295989,3.40924 -2.933927,5.39549 -3.485657,11.04428 -3.263808,16.94361 0.123051,6.41673 0.263542,12.69344 0.401099,19.22012 0.794357,2.06771 1.883455,2.52946 4.119624,1.96813 2.347408,-0.58925 4.170135,-1.82119 5.680587,-3.56082 0.471239,-1.11347 1.255346,-2.11921 1.288812,-3.14283 0.103535,-3.16286 -0.155127,-6.33312 -0.128291,-9.49958 0.0244,-2.76353 -0.05333,-5.56724 0.461513,-8.2765 0.49557,-2.60718 2.391191,-3.23597 5.310025,-2.28585 0.486087,0.15823 0.946589,0.37556 1.434735,0.52817 3.650058,1.14122 7.20847,-0.14906 8.772676,-3.20403 1.275006,-2.49016 0.950842,-4.95438 -0.350205,-7.35016 -0.67883,-1.25 -1.487898,-2.44779 -2.292608,-3.76486 -0.569299,-1.22508 -1.161431,-2.35415 -1.603737,-3.51359 -0.283761,-0.29219 -0.552844,-0.64097 -0.795401,-1.05694 -0.226242,-0.38791 -0.443386,-0.78484 -0.541587,-1.21375 -0.0034,-0.0168 -0.369552,-0.64819 -0.432334,-0.84823 -0.01744,-0.0494 -0.02091,-0.0651 -0.0244,-0.0793 -0.118171,-0.17763 -0.242273,-0.35245 -0.33535,-0.54158 -0.24158,-0.52528 -0.192776,-0.51231 -0.415358,-0.89603 -0.196959,-0.34703 -0.351981,-0.72804 -0.451995,-1.00214 -0.267725,-0.57203 -0.407409,-1.16536 -0.363102,-1.78157 v -1.13156 -1.56354 c 0,-0.29007 0.02091,-0.56158 0.0617,-0.815 -0.680608,-0.65216 -1.557757,-1.19666 -2.719468,-1.58803 -1.137031,-0.36801 -2.262279,-0.55019 -3.381217,-0.58414 -0.233215,-0.007 -0.465766,-0.008 -0.698353,-0.002 z" /><path
     fill="#97412B"
     opacity="1"
     stroke="none"
     d="m 21.073704,127.20365 c -2.228813,-3.46082 -1.533984,-7.10106 -1.370419,-10.70678 0.132117,-2.91563 0.163493,-5.83516 0.189987,-8.75328 0.0034,-0.53306 -0.183712,-1.07876 -0.359023,-1.59974 -0.86983,-2.58434 -2.668086,-3.3591 -5.526367,-2.23354 -2.91343,1.1473 -5.7580111,1.40188 -8.2640672,-0.52466 -2.5081811,-1.92817 -3.1665481,-4.57155 -2.2921881,-7.24003 0.6598657,-2.01374 2.0356534,-3.85439 3.1287605,-5.86526 2.2783493,-2.79753 2.0478546,-6.02055 2.5019415,-9.07775 0.4539479,-3.05602 1.4370023,-5.7356 5.2451153,-7.17092 2.995805,-0.98973 5.664935,-0.62467 8.367043,0.17077 1.572155,0.46283 3.229298,0.71274 4.844155,1.18576 -0.343023,1.31518 -0.556959,2.54367 -1.05734,3.67905 -0.465904,1.05722 -1.396494,1.96606 -1.83974,3.02737 -0.903922,2.16443 -1.199466,4.34778 0.802479,6.38708 3.602578,5.07187 5.541285,10.47984 5.911919,16.4469 -0.220317,8.01509 -0.436205,15.89048 -0.652128,23.76585 -0.240535,1.82894 -1.486468,2.61376 -3.783642,1.99725 -2.274863,-0.61054 -4.444798,-1.53397 -5.846591,-3.48808 z"
     id="path7"
     style="fill:none;stroke:#000000;stroke-width:1.62821;stroke-dasharray:none" /><path
     fill="#D5962C"
     opacity="1"
     stroke="none"
     d="m 27.542756,75.26094 c -1.618866,-0.34572 -3.27601,-0.59565 -4.848163,-1.05846 -2.70211,-0.79546 -5.37124,-1.16052 -8.243709,-0.17982 -1.792819,-3.778735 -3.249098,-7.535467 -0.876278,-11.566829 1.019414,-1.731913 2.548864,-2.484147 4.914433,-2.742022 1.491384,0.05163 2.686525,0.08531 3.877486,0.165112 3.109447,0.208381 5.74086,1.486916 8.357037,2.792584 0,0 -0.0244,0.01496 -0.01042,0.07108 0.05682,0.14493 0.130376,0.210058 0.232168,0.25147 1.871882,1.753907 2.076963,3.795237 1.658887,6.055214 -0.226939,1.227311 0.03764,2.521717 -0.06205,3.916841 -0.775114,0.36669 -1.428322,0.5688 -2.035305,0.84571 -1.003203,0.45766 -1.976565,0.96355 -2.962513,1.44911 z"
     id="path12"
     style="fill:none;stroke:#000000;stroke-width:1.62821;stroke-dasharray:none" /><path
     fill="#D6972C"
     opacity="1"
     stroke="none"
     d="m 61.291274,73.92546 c -3.072915,-0.87313 -6.023331,-0.5318 -8.984799,0.41275 -1.287905,0.41078 -2.670281,0.60302 -4.279038,0.89482 -2.120538,-0.0522 -2.976143,-1.21044 -3.844403,-2.48031 -0.320363,-0.911676 -0.62497,-1.711647 -0.939026,-2.508846 -1.912282,-4.853638 0.414591,-7.716558 5.26415,-9.24345 2.586721,-0.814439 5.487323,-0.893291 8.246289,-1.304141 3.926358,0.19793 5.789454,2.65401 6.217047,5.832352 0.389493,2.89525 -0.549255,5.604921 -1.68022,8.396825 z"
     id="path13"
     style="fill:none;stroke:#000000;stroke-width:1.62821;stroke-dasharray:none" /><path
     fill="#A17D40"
     opacity="1"
     stroke="none"
     d="m 56.675627,59.600096 c -2.680146,0.507037 -5.580748,0.585889 -8.167469,1.400328 -4.849559,1.526892 -7.176432,4.389812 -5.26415,9.24345 0.31409,0.797199 0.618593,1.59717 0.777729,2.510576 -2.699425,0.11175 -5.24902,0.10879 -7.79865,0.10582 0.169768,-0.30607 0.259358,-0.79557 0.52562,-0.88161 0.634558,-0.205086 1.350584,-0.233204 2.037362,-0.30824 1.34619,-0.147087 1.96935,-0.926212 1.874391,-1.95214 -0.09831,-1.062819 -0.983612,-1.648045 -2.276329,-1.633924 -0.954955,0.01041 -2.451429,0.38099 -2.749866,0.01527 -0.599314,-0.734611 -0.548454,-1.862312 -0.752977,-2.829799 -0.01744,-0.08427 0.0603,-0.183496 0.142582,-0.410559 1.83974,-0.191582 3.680072,-0.574627 4.28608,-2.474368 -1.274833,-1.774504 -3.231946,-1.521758 -5.072385,-1.155411 -0.182666,-0.204337 -0.296309,-0.274737 -0.315483,-0.360701 -0.837548,-3.7419 -1.36376,-2.930907 3.541017,-3.567344 6.538283,0.336263 12.896516,0.886712 19.212393,2.298748 z"
     id="path15"
     style="fill:none;stroke:#000000;stroke-width:1.62821;stroke-dasharray:none" /><path
     fill="#522419"
     opacity="1"
     stroke="none"
     d="m 44.15417,109.57381 c 0.140841,6.27626 0.281669,12.55253 0.404272,18.96807 -1.000554,-0.0679 -1.983084,-0.27522 -3.117709,-0.48987 -0.45639,-0.21768 -0.760613,-0.42792 -1.146061,-0.69429 0.594782,-0.54645 1.124377,-1.03294 1.922987,-1.7666 -1.948295,0 -3.529094,0 -5.229951,0 0,-1.23111 0,-2.29358 0,-3.5753 0.926929,0 1.829978,0.0282 2.729717,-0.007 1.408903,-0.0543 2.515781,-0.90829 2.373482,-1.89709 -0.165933,-1.15172 -0.986645,-1.73996 -2.37498,-1.7093 -0.85836,0.0188 -1.717766,0.004 -2.71553,0.004 0,-1.1832 0,-2.24291 0,-3.54881 1.369965,0 2.764472,0 4.524382,0 -1.288985,-1.32601 -1.373625,-2.39825 0.03138,-3.60481 -1.712257,0 -3.072985,0 -4.602854,0 0,-0.57622 0,-1.00628 0.181621,-1.56284 2.46133,-0.12303 4.741039,-0.11962 7.020748,-0.11618 z"
     id="path17"
     style="fill:none;stroke:#000000;stroke-width:1.62821;stroke-dasharray:none" /><path
     fill="#542316"
     opacity="1"
     stroke="none"
     d="m 30.812909,128.6409 c 0.107019,-7.82179 0.322804,-15.69717 0.689637,-23.71292 0.831761,-0.13962 1.512682,-0.13891 2.193638,-0.13816 -0.084,7.66797 -0.168024,15.33596 -0.282713,23.14116 -0.85104,0.31027 -1.671332,0.48332 -2.600562,0.70993 z"
     id="path20"
     style="fill:none;stroke:#000000;stroke-width:1.62821;stroke-dasharray:none" /><path
     fill="#A17D40"
     opacity="1"
     stroke="none"
     d="m 30.732522,62.544801 c -2.625137,-1.178964 -5.25655,-2.457497 -8.365997,-2.66588 -1.190961,-0.0798 -2.386102,-0.113488 -3.741078,-0.175502 3.131131,-0.597848 6.424082,-1.18792 9.71665,-1.779608 0.325943,-0.05857 0.649374,-0.127 1.09743,-0.24608 0.516277,1.543304 0.909115,3.141837 1.292995,4.867081 z"
     id="path21"
     style="fill:none;stroke:#000000;stroke-width:1.62821;stroke-dasharray:none" /><path
     fill="#6E2A19"
     opacity="1"
     stroke="none"
     d="m 36.208899,72.98995 c 2.563818,-0.1267 5.113413,-0.12376 7.824342,-0.12253 1.018053,1.15518 1.873658,2.31341 3.854616,2.38302 -0.101436,1.99064 0.729866,3.68433 1.950002,5.29775 2.157979,2.8536 2.31328,5.6785 -0.106319,8.5322 -0.872197,1.02869 -1.477438,2.22441 -2.403182,3.32619 -0.810287,-0.0638 -1.425568,-0.0874 -2.03262,-0.16112 -0.965171,-0.11726 -1.92487,-0.268 -2.886868,-0.40457 -0.699188,-2.24751 -2.925874,-2.09617 -5.024764,-2.17509 0,-1.15798 0,-2.18117 0,-3.35279 1.500132,-0.11365 3.024982,-0.22914 4.817137,-0.36491 -0.649023,-0.60487 -1.167533,-1.08809 -1.75489,-1.63549 0.509306,-0.54614 1.029313,-1.10371 1.771414,-1.89945 -1.307391,0.0628 -2.321819,0.0459 -3.310451,0.17484 -1.380249,0.18009 -2.108197,-0.13986 -1.964818,-1.45208 0.06414,-0.58727 0.01043,-1.18403 0.01043,-1.95003 1.505605,-0.15167 3.027282,-0.30496 5.041984,-0.50792 -0.961439,-0.49775 -1.675688,-0.86752 -2.400706,-1.24288 0.783478,-0.92801 1.241575,-1.4706 1.896038,-2.24579 -1.787171,0.10465 -3.300376,0.19326 -5.02351,0.29417 -0.09517,-0.82653 -0.183712,-1.59518 -0.258313,-2.49349 z"
     id="path68"
     style="fill:none;stroke:#000000;stroke-width:1.62821;stroke-dasharray:none" /><path
     fill="#6F2B19"
     opacity="1"
     stroke="none"
     d="m 27.538748,75.38824 c 0.989955,-0.61286 1.963318,-1.11875 2.966521,-1.57641 0.606983,-0.27689 1.260192,-0.47902 2.025927,-0.72419 0.523808,3.97146 0.924037,7.95175 1.297736,11.93386 0.0875,0.93295 0.0854,1.87213 -0.06797,2.92858 -2.909245,0.22294 -5.626203,0.32575 -8.343197,0.42856 -1.975624,-1.93621 -1.680081,-4.11956 -0.776159,-6.28399 0.443245,-1.06131 1.373834,-1.97015 1.839739,-3.02737 0.500381,-1.13538 0.714353,-2.36387 1.057341,-3.67904 z"
     id="path69"
     style="fill:none;stroke:#000000;stroke-width:1.62821;stroke-dasharray:none" /><path
     fill="#602719"
     opacity="1"
     stroke="none"
     d="m 42.300243,91.88669 c 1.070587,0.0908 2.030284,0.2415 2.995454,0.35875 0.607054,0.0738 1.222334,0.0973 1.941532,0.22653 -2.73526,5.41322 -3.287234,11.062 -3.065349,16.96137 -2.297419,0.13705 -4.577128,0.13362 -7.013602,0.13065 -0.156871,-0.53831 -0.156871,-1.07703 -0.156871,-1.83538 1.688516,0 3.308499,0 5.301031,0 -0.846124,-0.81621 -1.395379,-1.34609 -1.974579,-1.90483 0.564386,-0.50946 1.072052,-0.96776 1.868884,-1.68704 -1.810074,0 -3.302713,0 -4.905649,0 0,-1.28079 0,-2.33991 0,-3.56028 1.384712,0 2.681577,0 4.28859,0 -0.870142,-1.22209 -1.632776,-2.28164 0.0366,-3.45655 -0.565709,-0.0533 -0.762633,-0.0849 -0.960291,-0.0885 -3.83248,-0.0699 -3.848064,-0.0863 -3.13235,-3.62162 1.768031,0.10886 3.504586,-0.0771 4.7767,-1.52306 z"
     id="path70"
     style="fill:none;stroke:#000000;stroke-width:1.62821;stroke-dasharray:none" /><path
     fill="#652818"
     opacity="1"
     stroke="none"
     d="m 25.444145,88.48173 c 2.690674,-0.2059 5.407632,-0.30871 8.266472,-0.414 0.153036,3.05681 0.18441,6.11619 0.168374,9.17538 -0.01399,2.42343 -0.08296,4.84664 -0.155475,7.40833 -0.708532,0.13762 -1.389453,0.1369 -2.216858,0.13681 -0.52147,-5.82669 -2.460178,-11.23466 -6.062757,-16.30653 z"
     id="path71"
     style="fill:none;stroke:#000000;stroke-width:1.62821;stroke-dasharray:none" /><path
     fill="#A17D40"
     opacity="1"
     stroke="none"
     d="m 30.936279,62.922099 c -0.09447,0.03057 -0.167677,-0.03456 -0.226591,-0.192092 0.112244,-0.04983 0.189639,0.01313 0.226591,0.192092 z"
     id="path75"
     style="fill:none;stroke:#000000;stroke-width:1.62821;stroke-dasharray:none" /></g></svg>
